<?xml version="1.0" standalone="no"?>
<!DOCTYPE svg PUBLIC "-//W3C//DTD SVG 20010904//EN"
 "http://www.w3.org/TR/2001/REC-SVG-20010904/DTD/svg10.dtd">
<svg version="1.0" xmlns="http://www.w3.org/2000/svg"
 width="504.000000pt" height="571.000000pt" viewBox="0 0 504.000000 571.000000"
 preserveAspectRatio="xMidYMid meet">

<g transform="translate(0.000000,571.000000) scale(0.100000,-0.100000)"
fill="#000000" stroke="none">
<path d="M2590 5413 c-19 -2 -80 -10 -135 -18 -55 -8 -143 -17 -195 -20 -331
-20 -712 -187 -924 -405 -84 -86 -128 -165 -147 -265 -17 -83 -22 -88 -89 -80
-36 4 -73 2 -99 -6 -153 -46 -286 -309 -310 -610 -15 -193 3 -337 69 -529 40
-119 57 -209 75 -410 8 -96 20 -193 25 -215 5 -22 10 -61 10 -87 0 -37 6 -55
28 -80 50 -60 69 -128 82 -306 11 -160 10 -211 -5 -135 -18 97 -123 253 -170
253 -31 0 -13 -35 44 -89 33 -31 66 -70 75 -88 33 -66 86 -291 105 -448 18
-147 18 -161 3 -173 -20 -16 -64 -16 -82 1 -12 10 -12 9 -1 -5 10 -13 27 -18
61 -18 l47 0 11 -67 c20 -119 89 -284 180 -433 153 -250 328 -428 588 -595 96
-63 314 -180 314 -169 0 3 6 2 13 -4 14 -12 124 -46 214 -67 88 -20 330 -20
429 1 86 17 230 66 289 97 212 112 408 253 563 407 88 87 215 250 260 333 126
236 160 319 187 461 8 43 15 80 15 82 0 2 20 4 44 4 30 0 51 7 67 21 l24 20
-27 -17 c-36 -21 -98 -12 -98 15 0 60 34 329 50 396 11 44 25 103 31 130 15
66 50 126 98 167 42 35 65 88 38 88 -40 0 -97 -76 -150 -200 -25 -60 -27 -62
-23 -25 3 22 8 94 12 160 4 70 12 131 20 147 8 15 14 30 14 33 0 3 0 9 0 14 0
4 14 25 30 46 26 33 30 46 29 99 0 34 4 84 10 112 5 29 13 134 17 235 6 177 8
188 45 301 61 188 72 259 66 427 -3 91 -12 165 -21 195 -22 68 -21 70 26 101
61 40 87 72 125 152 39 80 59 195 45 258 -12 58 -28 53 -52 -14 -12 -32 -35
-72 -52 -88 -26 -25 -36 -28 -91 -27 -113 1 -174 46 -348 254 -318 380 -649
586 -1061 660 -104 19 -315 31 -398 23z m850 -1313 c93 -12 133 -29 270 -118
101 -65 135 -95 161 -142 11 -19 24 -42 29 -50 55 -86 98 -247 141 -525 6 -38
19 -113 30 -167 10 -53 19 -99 19 -103 0 -4 -19 -4 -42 -1 -118 19 -230 27
-403 28 -221 0 -455 -11 -455 -22 0 -5 28 -6 63 -3 34 3 59 3 56 0 -5 -6 -93
-20 -199 -32 -79 -9 -199 -34 -239 -51 -45 -19 -48 -18 -18 6 26 21 239 75
261 67 6 -2 20 0 31 5 36 16 -106 -1 -195 -23 -78 -20 -157 -61 -176 -91 -4
-7 -3 -8 4 -4 17 11 15 -9 -3 -24 -13 -11 -19 -7 -17 11 1 4 -19 2 -43 -3 -25
-5 -103 -8 -175 -6 -81 2 -131 -1 -134 -7 -2 -5 -14 1 -27 14 -13 13 -18 21
-11 17 6 -4 12 -3 12 2 0 12 -107 68 -145 75 -33 7 -34 8 53 -31 50 -22 34
-23 -49 -2 -41 11 -100 22 -130 25 -30 3 -94 9 -144 15 -49 5 -103 11 -120 13
l-30 3 35 12 c28 9 -23 11 -250 8 -230 -3 -310 -8 -414 -25 -71 -11 -131 -21
-133 -21 -2 0 -2 8 1 18 6 17 25 139 52 331 35 249 76 399 137 494 77 119 249
239 393 273 78 18 346 16 739 -6 234 -14 482 -3 680 30 128 21 266 24 385 10z
m-47 -1097 c-7 -2 -19 -2 -25 0 -7 3 -2 5 12 5 14 0 19 -2 13 -5z m-46 -9 c-3
-3 -12 -4 -19 -1 -8 3 -5 6 6 6 11 1 17 -2 13 -5z m545 -118 c81 -15 101 -32
128 -103 17 -45 20 -76 19 -186 -1 -73 -4 -123 -6 -113 -5 19 -72 116 -100
144 -7 7 -18 21 -25 30 -24 33 -73 59 -148 78 -41 10 -78 23 -81 28 -4 5 -14
6 -23 3 -9 -4 -41 0 -71 8 -30 7 -87 14 -127 15 -241 4 -378 4 -378 0 0 -3
-32 -5 -72 -3 -40 1 -78 -3 -85 -9 -24 -19 -15 17 10 39 50 45 160 67 412 83
173 11 457 3 547 -14z m-1789 -30 c80 -16 132 -40 141 -63 4 -10 -29 -11 -157
-8 -89 3 -209 0 -267 -6 -58 -6 -139 -12 -180 -14 -41 -1 -103 -12 -136 -23
-69 -23 -159 -67 -169 -82 -3 -5 -30 -26 -60 -45 -52 -35 -112 -106 -138 -163
-12 -25 -12 -25 -19 23 -3 28 -5 93 -3 146 3 101 23 167 61 201 50 44 195 57
564 53 211 -2 305 -7 363 -19z m490 -13 c-7 -2 -19 -2 -25 0 -7 3 -2 5 12 5
14 0 19 -2 13 -5z m-543 -116 c82 -3 130 -11 169 -26 29 -11 56 -23 59 -25 12
-12 14 -201 2 -277 -17 -120 -48 -172 -123 -210 -65 -34 -179 -42 -506 -36
-314 5 -389 14 -445 50 -21 14 -24 22 -20 59 7 63 43 186 69 238 39 75 161
172 198 156 7 -3 2 -8 -10 -11 -13 -4 -20 -11 -17 -16 3 -5 -5 -22 -19 -38
-28 -34 -52 -89 -43 -98 4 -4 32 19 63 51 57 56 146 108 209 121 l32 6 -43
-44 c-72 -75 -102 -217 -53 -251 33 -23 58 -20 59 7 1 20 2 20 12 -5 15 -38
62 -52 172 -52 164 1 180 10 192 116 3 26 7 48 9 48 2 0 13 -8 24 -17 15 -14
20 -30 20 -73 1 -43 3 -51 11 -37 6 10 9 49 7 88 -2 38 0 69 3 69 3 0 36 -31
72 -69 72 -74 85 -76 37 -6 -61 89 -206 194 -322 236 -38 13 -68 27 -68 31 0
4 -6 5 -14 2 -8 -3 -23 -1 -33 5 -17 9 -17 10 2 10 11 0 52 4 90 8 39 5 75 6
80 2 6 -4 62 -9 125 -12z m1295 2 c16 -6 13 -8 -15 -10 -19 -1 -44 -1 -55 -1
-15 2 -17 0 -6 -7 11 -7 2 -15 -35 -34 -110 -56 -223 -158 -266 -240 -26 -53
-17 -57 16 -7 33 50 46 51 46 3 0 -21 4 -43 8 -49 9 -13 85 -27 77 -13 -8 12
-3 11 31 -5 28 -14 117 -20 236 -17 50 1 60 4 75 27 9 14 20 51 24 81 4 30 10
57 12 60 3 2 15 -4 26 -14 16 -14 21 -29 21 -71 0 -33 4 -51 10 -47 6 3 10 36
10 73 0 82 -30 152 -84 200 -21 18 -36 36 -33 38 9 10 120 -16 171 -39 28 -13
80 -50 114 -82 34 -32 65 -55 69 -52 12 13 -9 58 -42 91 -19 20 -35 39 -35 43
0 4 -13 17 -29 28 -53 35 -25 28 71 -18 93 -45 138 -76 138 -94 0 -6 9 -18 20
-28 38 -34 89 -216 76 -269 -17 -68 -209 -99 -626 -100 -279 -1 -286 -1 -338
23 -61 28 -107 75 -122 128 -16 59 -32 224 -26 265 9 53 55 97 130 120 66 21
292 33 331 17z m-109 -134 c21 -32 12 -67 -22 -85 -22 -12 -29 -12 -52 1 -41
23 -41 61 0 88 43 27 54 26 74 -4z m-1482 -14 c25 -28 17 -72 -16 -90 -25 -14
-29 -14 -55 5 -15 12 -29 31 -31 43 -8 51 66 82 102 42z m956 -129 c32 -18 36
-26 62 -126 35 -134 46 -155 122 -232 50 -51 71 -65 118 -79 32 -9 82 -15 115
-13 l58 3 -57 14 c-32 8 -58 17 -58 20 0 3 71 4 159 3 162 -4 550 20 638 39
26 5 69 13 96 16 54 6 61 -6 27 -50 -31 -40 -90 -46 -449 -48 -174 0 -230 -4
-222 -12 8 -8 95 -12 279 -13 147 -1 303 -5 347 -9 98 -9 103 -5 109 91 3 38
5 72 5 75 1 4 8 10 17 13 10 4 13 2 7 -6 -4 -7 -8 -65 -10 -128 -7 -259 -39
-361 -224 -709 -4 -9 -27 -54 -50 -101 -23 -47 -69 -123 -103 -168 -33 -46
-65 -91 -71 -101 -17 -28 -204 -207 -248 -238 -23 -15 -46 -34 -50 -40 -4 -7
-12 -13 -18 -13 -5 0 -20 -9 -32 -21 -12 -11 -51 -39 -87 -60 -36 -22 -76 -48
-90 -57 -13 -9 -21 -12 -17 -5 4 6 -12 1 -36 -13 -44 -24 -149 -65 -177 -68
-9 -1 -20 -5 -25 -8 -6 -3 -49 -11 -97 -18 -129 -19 -340 -8 -443 24 -96 29
-202 71 -221 87 -8 6 -14 8 -14 5 0 -4 -13 2 -29 13 -16 12 -32 21 -35 21 -4
0 -12 4 -19 10 -7 5 -43 31 -82 56 -38 26 -73 52 -77 58 -4 6 -8 7 -8 3 0 -5
-6 -2 -14 5 -7 7 -30 27 -50 43 -159 129 -309 310 -407 490 -23 44 -58 107
-76 140 -59 104 -112 221 -129 284 -10 34 -21 61 -26 61 -5 0 -7 3 -5 8 3 4 1
32 -4 62 -4 30 -13 102 -18 159 -6 57 -16 110 -23 119 -11 13 -10 15 5 9 16
-6 16 -5 1 18 -9 14 -21 22 -27 18 -6 -3 -7 -1 -3 6 4 6 12 9 17 6 5 -4 9 1 9
9 0 11 10 9 45 -11 41 -22 45 -28 45 -62 0 -25 7 -44 20 -56 11 -10 20 -14 20
-9 0 5 4 3 9 -5 6 -10 29 -13 82 -12 41 1 214 3 384 5 171 2 348 9 395 15 100
14 214 65 259 116 31 35 66 130 77 208 3 26 10 50 15 53 5 3 9 15 9 27 0 12
12 31 27 42 14 11 36 28 47 37 30 25 159 25 206 0z m1310 -206 c0 -2 -8 -10
-17 -17 -16 -13 -17 -12 -4 4 13 16 21 21 21 13z m-2849 -53 c13 -16 12 -17
-3 -4 -10 7 -18 15 -18 17 0 8 8 3 21 -13z m832 -60 c-7 -2 -21 -2 -30 0 -10
3 -4 5 12 5 17 0 24 -2 18 -5z m-676 -95 c97 -13 687 -18 788 -6 l60 7 -64
-24 c-66 -24 -147 -32 -408 -37 -74 -2 -123 -7 -123 -13 0 -5 -4 -5 -8 2 -5 7
-40 11 -102 10 -108 -1 -203 9 -208 24 -2 5 -8 9 -14 9 -13 0 -38 26 -38 40 0
7 7 10 15 6 8 -3 54 -11 102 -18z"/>
<path d="M3245 3393 c-56 -12 -154 -49 -186 -69 -96 -60 -126 -145 -70 -198
46 -44 93 -45 190 -2 109 48 229 78 311 79 82 0 152 -30 225 -95 70 -63 93
-74 112 -55 14 14 12 22 -15 82 -62 132 -186 229 -326 254 -58 11 -201 13
-241 4z"/>
<path d="M1662 3370 c-100 -23 -169 -59 -229 -120 -61 -61 -113 -150 -116
-196 -3 -58 21 -54 99 17 93 82 158 112 250 111 84 -1 208 -30 303 -72 77 -33
115 -37 166 -16 40 17 55 42 55 90 0 133 -298 238 -528 186z"/>
<path d="M1900 2987 c3 -3 37 -8 75 -11 106 -8 163 -14 196 -21 16 -4 29 -2
29 3 0 5 -24 12 -52 16 -81 10 -254 19 -248 13z"/>
<path d="M2860 1870 c0 -40 -40 -101 -86 -130 -62 -39 -165 -56 -252 -42 -92
16 -149 53 -183 122 l-28 55 -1 -51 c0 -69 29 -111 100 -147 182 -91 437 -26
468 119 10 46 5 94 -9 94 -5 0 -9 -9 -9 -20z"/>
<path d="M3190 1474 c-252 -63 -821 -76 -1152 -26 -131 20 -148 19 -148 -11 0
-22 29 -78 56 -107 7 -8 27 -31 43 -50 16 -19 51 -50 77 -69 27 -19 41 -26 32
-15 -10 12 -18 26 -18 33 0 14 9 13 103 -12 32 -9 94 -21 139 -27 76 -11 81
-10 100 10 17 19 26 20 76 14 72 -10 101 -9 185 1 58 7 70 5 87 -10 19 -17 27
-18 103 -5 45 7 109 21 142 31 73 23 85 23 85 4 0 -8 4 -15 9 -15 24 0 171
173 185 218 9 26 -8 53 -33 51 -9 -1 -41 -7 -71 -15z m-475 -82 c233 7 325 0
325 -25 0 -4 5 -5 10 -2 6 3 10 1 10 -4 0 -6 -5 -11 -11 -11 -5 0 -8 -4 -5 -9
13 -20 -137 -54 -304 -70 -235 -23 -598 16 -617 65 -7 19 23 52 51 56 11 2 84
1 161 -2 77 -3 248 -2 380 2z"/>
<path d="M900 1746 c0 -2 8 -10 18 -17 15 -13 16 -12 3 4 -13 16 -21 21 -21
13z"/>
</g>
</svg>
